<mxfile host="app.diagrams.net" agent="Mozilla/5.0 (X11; Linux x86_64) AppleWebKit/537.36 (KHTML, like Gecko) Chrome/133.0.0.0 Safari/537.36" version="26.0.14">
  <diagram id="C5RBs43oDa-KdzZeNtuy" name="Page-1">
    <mxGraphModel dx="1434" dy="754" grid="1" gridSize="10" guides="1" tooltips="1" connect="1" arrows="1" fold="1" page="1" pageScale="1" pageWidth="827" pageHeight="1169" math="0" shadow="0">
      <root>
        <mxCell id="WIyWlLk6GJQsqaUBKTNV-0" />
        <mxCell id="WIyWlLk6GJQsqaUBKTNV-1" parent="WIyWlLk6GJQsqaUBKTNV-0" />
        <mxCell id="U9Vl8CcKDBj28J9De0o6-0" value="User" style="swimlane;fontStyle=1;align=center;verticalAlign=top;childLayout=stackLayout;horizontal=1;startSize=26;horizontalStack=0;resizeParent=1;resizeParentMax=0;resizeLast=0;collapsible=1;marginBottom=0;whiteSpace=wrap;html=1;" parent="WIyWlLk6GJQsqaUBKTNV-1" vertex="1">
          <mxGeometry x="10" y="350" width="160" height="252" as="geometry">
            <mxRectangle x="10" y="350" width="70" height="30" as="alternateBounds" />
          </mxGeometry>
        </mxCell>
        <mxCell id="U9Vl8CcKDBj28J9De0o6-1" value="+id : String&lt;div&gt;+username : String&lt;/div&gt;&lt;div&gt;+firstName : String&lt;/div&gt;&lt;div&gt;+lastName : String&lt;/div&gt;&lt;div&gt;+phone : String&lt;/div&gt;&lt;div&gt;+email : String&lt;/div&gt;&lt;div&gt;+password : String&lt;/div&gt;&lt;div&gt;+role : String&lt;/div&gt;" style="text;strokeColor=none;fillColor=none;align=left;verticalAlign=top;spacingLeft=4;spacingRight=4;overflow=hidden;rotatable=0;points=[[0,0.5],[1,0.5]];portConstraint=eastwest;whiteSpace=wrap;html=1;" parent="U9Vl8CcKDBj28J9De0o6-0" vertex="1">
          <mxGeometry y="26" width="160" height="134" as="geometry" />
        </mxCell>
        <mxCell id="U9Vl8CcKDBj28J9De0o6-2" value="" style="line;strokeWidth=1;fillColor=none;align=left;verticalAlign=middle;spacingTop=-1;spacingLeft=3;spacingRight=3;rotatable=0;labelPosition=right;points=[];portConstraint=eastwest;strokeColor=inherit;" parent="U9Vl8CcKDBj28J9De0o6-0" vertex="1">
          <mxGeometry y="160" width="160" height="8" as="geometry" />
        </mxCell>
        <mxCell id="U9Vl8CcKDBj28J9De0o6-3" value="+ method(type): type" style="text;strokeColor=none;fillColor=none;align=left;verticalAlign=top;spacingLeft=4;spacingRight=4;overflow=hidden;rotatable=0;points=[[0,0.5],[1,0.5]];portConstraint=eastwest;whiteSpace=wrap;html=1;" parent="U9Vl8CcKDBj28J9De0o6-0" vertex="1">
          <mxGeometry y="168" width="160" height="84" as="geometry" />
        </mxCell>
        <mxCell id="U9Vl8CcKDBj28J9De0o6-4" value="Car" style="swimlane;fontStyle=1;align=center;verticalAlign=top;childLayout=stackLayout;horizontal=1;startSize=26;horizontalStack=0;resizeParent=1;resizeParentMax=0;resizeLast=0;collapsible=1;marginBottom=0;whiteSpace=wrap;html=1;" parent="WIyWlLk6GJQsqaUBKTNV-1" vertex="1">
          <mxGeometry x="310" y="60" width="160" height="332" as="geometry" />
        </mxCell>
        <mxCell id="U9Vl8CcKDBj28J9De0o6-5" value="+ id : String&lt;div&gt;+vin : String&lt;/div&gt;&lt;div&gt;+model : String&lt;/div&gt;&lt;div&gt;+year : String&lt;/div&gt;&lt;div&gt;+colors : String[]&lt;/div&gt;&lt;div&gt;+type : String&lt;/div&gt;&lt;div&gt;+transmission : String&lt;/div&gt;&lt;div&gt;+driveType : String&lt;/div&gt;&lt;div&gt;+features : String[]&lt;/div&gt;&lt;div&gt;+price : unsigned Int&lt;/div&gt;&lt;div&gt;+discount : unsigned Int&lt;/div&gt;&lt;div&gt;+availability : boolean&lt;/div&gt;&lt;div&gt;+images : String[]&lt;/div&gt;" style="text;strokeColor=none;fillColor=none;align=left;verticalAlign=top;spacingLeft=4;spacingRight=4;overflow=hidden;rotatable=0;points=[[0,0.5],[1,0.5]];portConstraint=eastwest;whiteSpace=wrap;html=1;" parent="U9Vl8CcKDBj28J9De0o6-4" vertex="1">
          <mxGeometry y="26" width="160" height="204" as="geometry" />
        </mxCell>
        <mxCell id="U9Vl8CcKDBj28J9De0o6-6" value="" style="line;strokeWidth=1;fillColor=none;align=left;verticalAlign=middle;spacingTop=-1;spacingLeft=3;spacingRight=3;rotatable=0;labelPosition=right;points=[];portConstraint=eastwest;strokeColor=inherit;" parent="U9Vl8CcKDBj28J9De0o6-4" vertex="1">
          <mxGeometry y="230" width="160" height="8" as="geometry" />
        </mxCell>
        <mxCell id="U9Vl8CcKDBj28J9De0o6-7" value="+ method(type): type" style="text;strokeColor=none;fillColor=none;align=left;verticalAlign=top;spacingLeft=4;spacingRight=4;overflow=hidden;rotatable=0;points=[[0,0.5],[1,0.5]];portConstraint=eastwest;whiteSpace=wrap;html=1;" parent="U9Vl8CcKDBj28J9De0o6-4" vertex="1">
          <mxGeometry y="238" width="160" height="94" as="geometry" />
        </mxCell>
        <mxCell id="U9Vl8CcKDBj28J9De0o6-8" value="Engine" style="swimlane;fontStyle=1;align=center;verticalAlign=top;childLayout=stackLayout;horizontal=1;startSize=26;horizontalStack=0;resizeParent=1;resizeParentMax=0;resizeLast=0;collapsible=1;marginBottom=0;whiteSpace=wrap;html=1;" parent="WIyWlLk6GJQsqaUBKTNV-1" vertex="1">
          <mxGeometry x="640" y="320" width="160" height="134" as="geometry" />
        </mxCell>
        <mxCell id="U9Vl8CcKDBj28J9De0o6-9" value="+id : String&lt;div&gt;+type : String&lt;/div&gt;&lt;div&gt;+capacity : String&lt;/div&gt;&lt;div&gt;+horsepower : unsigned Int&lt;/div&gt;" style="text;strokeColor=none;fillColor=none;align=left;verticalAlign=top;spacingLeft=4;spacingRight=4;overflow=hidden;rotatable=0;points=[[0,0.5],[1,0.5]];portConstraint=eastwest;whiteSpace=wrap;html=1;" parent="U9Vl8CcKDBj28J9De0o6-8" vertex="1">
          <mxGeometry y="26" width="160" height="74" as="geometry" />
        </mxCell>
        <mxCell id="U9Vl8CcKDBj28J9De0o6-10" value="" style="line;strokeWidth=1;fillColor=none;align=left;verticalAlign=middle;spacingTop=-1;spacingLeft=3;spacingRight=3;rotatable=0;labelPosition=right;points=[];portConstraint=eastwest;strokeColor=inherit;" parent="U9Vl8CcKDBj28J9De0o6-8" vertex="1">
          <mxGeometry y="100" width="160" height="8" as="geometry" />
        </mxCell>
        <mxCell id="U9Vl8CcKDBj28J9De0o6-11" value="+ method(type): type" style="text;strokeColor=none;fillColor=none;align=left;verticalAlign=top;spacingLeft=4;spacingRight=4;overflow=hidden;rotatable=0;points=[[0,0.5],[1,0.5]];portConstraint=eastwest;whiteSpace=wrap;html=1;" parent="U9Vl8CcKDBj28J9De0o6-8" vertex="1">
          <mxGeometry y="108" width="160" height="26" as="geometry" />
        </mxCell>
        <mxCell id="U9Vl8CcKDBj28J9De0o6-20" value="Sales" style="swimlane;fontStyle=1;align=center;verticalAlign=top;childLayout=stackLayout;horizontal=1;startSize=26;horizontalStack=0;resizeParent=1;resizeParentMax=0;resizeLast=0;collapsible=1;marginBottom=0;whiteSpace=wrap;html=1;" parent="WIyWlLk6GJQsqaUBKTNV-1" vertex="1">
          <mxGeometry x="320" y="610" width="160" height="144" as="geometry" />
        </mxCell>
        <mxCell id="U9Vl8CcKDBj28J9De0o6-21" value="+id : String&lt;div&gt;+paymentType : String&lt;/div&gt;&lt;div&gt;+totalPrice : unsigned Int&lt;/div&gt;&lt;div&gt;+status : String&lt;/div&gt;&lt;div&gt;+saleDate : Date&lt;/div&gt;" style="text;strokeColor=none;fillColor=none;align=left;verticalAlign=top;spacingLeft=4;spacingRight=4;overflow=hidden;rotatable=0;points=[[0,0.5],[1,0.5]];portConstraint=eastwest;whiteSpace=wrap;html=1;" parent="U9Vl8CcKDBj28J9De0o6-20" vertex="1">
          <mxGeometry y="26" width="160" height="84" as="geometry" />
        </mxCell>
        <mxCell id="U9Vl8CcKDBj28J9De0o6-22" value="" style="line;strokeWidth=1;fillColor=none;align=left;verticalAlign=middle;spacingTop=-1;spacingLeft=3;spacingRight=3;rotatable=0;labelPosition=right;points=[];portConstraint=eastwest;strokeColor=inherit;" parent="U9Vl8CcKDBj28J9De0o6-20" vertex="1">
          <mxGeometry y="110" width="160" height="8" as="geometry" />
        </mxCell>
        <mxCell id="U9Vl8CcKDBj28J9De0o6-23" value="+ method(type): type" style="text;strokeColor=none;fillColor=none;align=left;verticalAlign=top;spacingLeft=4;spacingRight=4;overflow=hidden;rotatable=0;points=[[0,0.5],[1,0.5]];portConstraint=eastwest;whiteSpace=wrap;html=1;" parent="U9Vl8CcKDBj28J9De0o6-20" vertex="1">
          <mxGeometry y="118" width="160" height="26" as="geometry" />
        </mxCell>
        <mxCell id="U9Vl8CcKDBj28J9De0o6-24" value="Sold in" style="endArrow=open;html=1;endSize=12;startArrow=diamondThin;startSize=14;startFill=0;edgeStyle=orthogonalEdgeStyle;rounded=0;entryX=0.5;entryY=0;entryDx=0;entryDy=0;exitX=0.494;exitY=1;exitDx=0;exitDy=0;exitPerimeter=0;" parent="WIyWlLk6GJQsqaUBKTNV-1" source="U9Vl8CcKDBj28J9De0o6-7" target="U9Vl8CcKDBj28J9De0o6-20" edge="1">
          <mxGeometry x="0.0044" relative="1" as="geometry">
            <mxPoint x="400" y="420" as="sourcePoint" />
            <mxPoint x="401" y="420" as="targetPoint" />
            <mxPoint as="offset" />
          </mxGeometry>
        </mxCell>
        <mxCell id="U9Vl8CcKDBj28J9De0o6-25" value="0..n" style="edgeLabel;resizable=0;html=1;align=left;verticalAlign=top;" parent="U9Vl8CcKDBj28J9De0o6-24" connectable="0" vertex="1">
          <mxGeometry x="-1" relative="1" as="geometry">
            <mxPoint x="10" y="-25" as="offset" />
          </mxGeometry>
        </mxCell>
        <mxCell id="U9Vl8CcKDBj28J9De0o6-26" value="1" style="edgeLabel;resizable=0;html=1;align=right;verticalAlign=top;" parent="U9Vl8CcKDBj28J9De0o6-24" connectable="0" vertex="1">
          <mxGeometry x="1" relative="1" as="geometry">
            <mxPoint x="20" y="-30" as="offset" />
          </mxGeometry>
        </mxCell>
        <mxCell id="U9Vl8CcKDBj28J9De0o6-27" value="Made by" style="endArrow=open;html=1;endSize=12;startArrow=diamondThin;startSize=14;startFill=0;edgeStyle=orthogonalEdgeStyle;rounded=0;exitX=0.006;exitY=0.595;exitDx=0;exitDy=0;exitPerimeter=0;" parent="WIyWlLk6GJQsqaUBKTNV-1" source="U9Vl8CcKDBj28J9De0o6-21" target="U9Vl8CcKDBj28J9De0o6-1" edge="1">
          <mxGeometry relative="1" as="geometry">
            <mxPoint x="280" y="550" as="sourcePoint" />
            <mxPoint x="240" y="280" as="targetPoint" />
          </mxGeometry>
        </mxCell>
        <mxCell id="U9Vl8CcKDBj28J9De0o6-28" value="0..n" style="edgeLabel;resizable=0;html=1;align=left;verticalAlign=top;" parent="U9Vl8CcKDBj28J9De0o6-27" connectable="0" vertex="1">
          <mxGeometry x="-1" relative="1" as="geometry">
            <mxPoint x="-31" as="offset" />
          </mxGeometry>
        </mxCell>
        <mxCell id="U9Vl8CcKDBj28J9De0o6-29" value="1" style="edgeLabel;resizable=0;html=1;align=right;verticalAlign=top;" parent="U9Vl8CcKDBj28J9De0o6-27" connectable="0" vertex="1">
          <mxGeometry x="1" relative="1" as="geometry">
            <mxPoint x="30" y="-23" as="offset" />
          </mxGeometry>
        </mxCell>
        <mxCell id="U9Vl8CcKDBj28J9De0o6-30" value="1" style="endArrow=open;html=1;endSize=12;startArrow=diamondThin;startSize=14;startFill=1;edgeStyle=orthogonalEdgeStyle;align=left;verticalAlign=bottom;rounded=0;exitX=0.5;exitY=0;exitDx=0;exitDy=0;" parent="WIyWlLk6GJQsqaUBKTNV-1" source="U9Vl8CcKDBj28J9De0o6-8" target="U9Vl8CcKDBj28J9De0o6-5" edge="1">
          <mxGeometry x="-0.9476" y="-10" relative="1" as="geometry">
            <mxPoint x="520" y="270" as="sourcePoint" />
            <mxPoint x="680" y="270" as="targetPoint" />
            <mxPoint as="offset" />
          </mxGeometry>
        </mxCell>
        <mxCell id="U9Vl8CcKDBj28J9De0o6-32" value="1" style="text;html=1;align=center;verticalAlign=middle;whiteSpace=wrap;rounded=0;" parent="WIyWlLk6GJQsqaUBKTNV-1" vertex="1">
          <mxGeometry x="470" y="160" width="60" height="30" as="geometry" />
        </mxCell>
        <mxCell id="U9Vl8CcKDBj28J9De0o6-36" value="Belongs to" style="text;html=1;align=center;verticalAlign=middle;whiteSpace=wrap;rounded=1;shadow=0;glass=0;fillColor=default;arcSize=0;" parent="WIyWlLk6GJQsqaUBKTNV-1" vertex="1">
          <mxGeometry x="610" y="170" width="70" height="33" as="geometry" />
        </mxCell>
        <mxCell id="0-6aoIzkKzY1jUHMwZPV-15" value="Payment" style="swimlane;fontStyle=1;align=center;verticalAlign=top;childLayout=stackLayout;horizontal=1;startSize=26;horizontalStack=0;resizeParent=1;resizeParentMax=0;resizeLast=0;collapsible=1;marginBottom=0;whiteSpace=wrap;html=1;" vertex="1" parent="WIyWlLk6GJQsqaUBKTNV-1">
          <mxGeometry x="940" y="441" width="160" height="144" as="geometry" />
        </mxCell>
        <mxCell id="0-6aoIzkKzY1jUHMwZPV-16" value="+id : String&lt;div&gt;+paymentDate : Date&lt;span style=&quot;background-color: transparent; color: light-dark(rgb(0, 0, 0), rgb(255, 255, 255));&quot;&gt;&amp;nbsp;&lt;/span&gt;&lt;/div&gt;&lt;div&gt;+paymentMethod : String&lt;/div&gt;&lt;div&gt;+transactionId : String?&lt;/div&gt;" style="text;strokeColor=none;fillColor=none;align=left;verticalAlign=top;spacingLeft=4;spacingRight=4;overflow=hidden;rotatable=0;points=[[0,0.5],[1,0.5]];portConstraint=eastwest;whiteSpace=wrap;html=1;" vertex="1" parent="0-6aoIzkKzY1jUHMwZPV-15">
          <mxGeometry y="26" width="160" height="84" as="geometry" />
        </mxCell>
        <mxCell id="0-6aoIzkKzY1jUHMwZPV-17" value="" style="line;strokeWidth=1;fillColor=none;align=left;verticalAlign=middle;spacingTop=-1;spacingLeft=3;spacingRight=3;rotatable=0;labelPosition=right;points=[];portConstraint=eastwest;strokeColor=inherit;" vertex="1" parent="0-6aoIzkKzY1jUHMwZPV-15">
          <mxGeometry y="110" width="160" height="8" as="geometry" />
        </mxCell>
        <mxCell id="0-6aoIzkKzY1jUHMwZPV-18" value="+ method(type): type" style="text;strokeColor=none;fillColor=none;align=left;verticalAlign=top;spacingLeft=4;spacingRight=4;overflow=hidden;rotatable=0;points=[[0,0.5],[1,0.5]];portConstraint=eastwest;whiteSpace=wrap;html=1;" vertex="1" parent="0-6aoIzkKzY1jUHMwZPV-15">
          <mxGeometry y="118" width="160" height="26" as="geometry" />
        </mxCell>
        <mxCell id="0-6aoIzkKzY1jUHMwZPV-22" value="Payment Plan" style="swimlane;fontStyle=1;align=center;verticalAlign=top;childLayout=stackLayout;horizontal=1;startSize=26;horizontalStack=0;resizeParent=1;resizeParentMax=0;resizeLast=0;collapsible=1;marginBottom=0;whiteSpace=wrap;html=1;" vertex="1" parent="WIyWlLk6GJQsqaUBKTNV-1">
          <mxGeometry x="700" y="754" width="220" height="154" as="geometry" />
        </mxCell>
        <mxCell id="0-6aoIzkKzY1jUHMwZPV-23" value="+ id : String&lt;div&gt;+downPayment : unsigned int&lt;/div&gt;&lt;div&gt;+numberOfPayments : unsigned int&lt;/div&gt;&lt;div&gt;+paymentAmount : unsigned int&lt;/div&gt;&lt;div&gt;+interestRate : unsigned int&lt;/div&gt;" style="text;strokeColor=none;fillColor=none;align=left;verticalAlign=top;spacingLeft=4;spacingRight=4;overflow=hidden;rotatable=0;points=[[0,0.5],[1,0.5]];portConstraint=eastwest;whiteSpace=wrap;html=1;" vertex="1" parent="0-6aoIzkKzY1jUHMwZPV-22">
          <mxGeometry y="26" width="220" height="94" as="geometry" />
        </mxCell>
        <mxCell id="0-6aoIzkKzY1jUHMwZPV-24" value="" style="line;strokeWidth=1;fillColor=none;align=left;verticalAlign=middle;spacingTop=-1;spacingLeft=3;spacingRight=3;rotatable=0;labelPosition=right;points=[];portConstraint=eastwest;strokeColor=inherit;" vertex="1" parent="0-6aoIzkKzY1jUHMwZPV-22">
          <mxGeometry y="120" width="220" height="8" as="geometry" />
        </mxCell>
        <mxCell id="0-6aoIzkKzY1jUHMwZPV-25" value="+ method(type): type" style="text;strokeColor=none;fillColor=none;align=left;verticalAlign=top;spacingLeft=4;spacingRight=4;overflow=hidden;rotatable=0;points=[[0,0.5],[1,0.5]];portConstraint=eastwest;whiteSpace=wrap;html=1;" vertex="1" parent="0-6aoIzkKzY1jUHMwZPV-22">
          <mxGeometry y="128" width="220" height="26" as="geometry" />
        </mxCell>
        <mxCell id="0-6aoIzkKzY1jUHMwZPV-27" value="Belongs to" style="endArrow=open;html=1;endSize=12;startArrow=diamondThin;startSize=14;startFill=0;edgeStyle=orthogonalEdgeStyle;rounded=0;exitX=0;exitY=0.5;exitDx=0;exitDy=0;" edge="1" parent="WIyWlLk6GJQsqaUBKTNV-1" source="0-6aoIzkKzY1jUHMwZPV-23" target="U9Vl8CcKDBj28J9De0o6-21">
          <mxGeometry relative="1" as="geometry">
            <mxPoint x="150" y="880" as="sourcePoint" />
            <mxPoint x="310" y="880" as="targetPoint" />
          </mxGeometry>
        </mxCell>
        <mxCell id="0-6aoIzkKzY1jUHMwZPV-28" value="1" style="edgeLabel;resizable=0;html=1;align=left;verticalAlign=top;" connectable="0" vertex="1" parent="0-6aoIzkKzY1jUHMwZPV-27">
          <mxGeometry x="-1" relative="1" as="geometry">
            <mxPoint x="-40" y="13" as="offset" />
          </mxGeometry>
        </mxCell>
        <mxCell id="0-6aoIzkKzY1jUHMwZPV-29" value="1" style="edgeLabel;resizable=0;html=1;align=right;verticalAlign=top;" connectable="0" vertex="1" parent="0-6aoIzkKzY1jUHMwZPV-27">
          <mxGeometry x="1" relative="1" as="geometry">
            <mxPoint x="30" as="offset" />
          </mxGeometry>
        </mxCell>
        <mxCell id="0-6aoIzkKzY1jUHMwZPV-30" value="Belongs to" style="endArrow=open;html=1;endSize=12;startArrow=diamondThin;startSize=14;startFill=0;edgeStyle=orthogonalEdgeStyle;rounded=0;exitX=-0.012;exitY=0.417;exitDx=0;exitDy=0;exitPerimeter=0;entryX=0.455;entryY=0;entryDx=0;entryDy=0;entryPerimeter=0;" edge="1" parent="WIyWlLk6GJQsqaUBKTNV-1" source="0-6aoIzkKzY1jUHMwZPV-16" target="0-6aoIzkKzY1jUHMwZPV-22">
          <mxGeometry relative="1" as="geometry">
            <mxPoint x="680" y="580" as="sourcePoint" />
            <mxPoint x="840" y="580" as="targetPoint" />
          </mxGeometry>
        </mxCell>
        <mxCell id="0-6aoIzkKzY1jUHMwZPV-31" value="1..n" style="edgeLabel;resizable=0;html=1;align=left;verticalAlign=top;" connectable="0" vertex="1" parent="0-6aoIzkKzY1jUHMwZPV-30">
          <mxGeometry x="-1" relative="1" as="geometry">
            <mxPoint x="-38" y="8" as="offset" />
          </mxGeometry>
        </mxCell>
        <mxCell id="0-6aoIzkKzY1jUHMwZPV-32" value="1" style="edgeLabel;resizable=0;html=1;align=right;verticalAlign=top;" connectable="0" vertex="1" parent="0-6aoIzkKzY1jUHMwZPV-30">
          <mxGeometry x="1" relative="1" as="geometry">
            <mxPoint x="20" y="-34" as="offset" />
          </mxGeometry>
        </mxCell>
      </root>
    </mxGraphModel>
  </diagram>
</mxfile>
